<?xml version="1.0" standalone="no"?>
<!DOCTYPE svg PUBLIC "-//W3C//DTD SVG 20010904//EN"
 "http://www.w3.org/TR/2001/REC-SVG-20010904/DTD/svg10.dtd">
<svg version="1.0" xmlns="http://www.w3.org/2000/svg"
 width="32.000000pt" height="32.000000pt" viewBox="0 0 32.000000 32.000000"
 preserveAspectRatio="xMidYMid meet">
<metadata>
Created by potrace 1.10, written by Peter Selinger 2001-2011
</metadata>
<g transform="translate(0.000000,32.000000) scale(0.100000,-0.100000)"
fill="#ffffff" stroke="none">
<path d="M150 305 c0 -8 5 -15 10 -15 6 0 10 7 10 15 0 8 -4 15 -10 15 -5 0
-10 -7 -10 -15z"/>
<path d="M98 240 c-26 -27 -30 -36 -25 -67 6 -37 57 -103 57 -73 -1 8 -7 26
-15 40 -30 53 -9 100 45 100 55 0 73 -48 41 -108 -19 -36 -12 -48 14 -21 14
14 28 41 32 62 5 31 1 40 -25 67 -21 21 -40 30 -62 30 -22 0 -41 -9 -62 -30z"/>
<path d="M20 180 c0 -5 7 -10 15 -10 8 0 15 5 15 10 0 6 -7 10 -15 10 -8 0
-15 -4 -15 -10z"/>
<path d="M270 180 c0 -5 7 -10 15 -10 8 0 15 5 15 10 0 6 -7 10 -15 10 -8 0
-15 -4 -15 -10z"/>
<path d="M127 73 c-14 -14 -6 -53 13 -63 30 -16 60 4 60 40 0 27 -3 30 -33 30
-19 0 -37 -3 -40 -7z"/>
</g>
</svg>
